<svg xmlns="http://www.w3.org/2000/svg" version="1.1" xmlns:xlink="http://www.w3.org/1999/xlink" xmlns:svgjs="http://svgjs.dev/svgjs" width="1000" height="224" viewBox="0 0 1000 224"><g transform="matrix(1,0,0,1,-0.6060605849663716,-0.03595582537238329)"><svg viewBox="0 0 396 89" data-background-color="#ffffff" preserveAspectRatio="xMidYMid meet" height="224" width="1000" xmlns="http://www.w3.org/2000/svg" xmlns:xlink="http://www.w3.org/1999/xlink"><g id="tight-bounds" transform="matrix(1,0,0,1,0.24000000835337687,0.01428708901781306)"><svg viewBox="0 0 395.52 88.97142689107977" height="88.97142689107977" width="395.52"><g><svg viewBox="0 0 395.52 88.97142689107977" height="88.97142689107977" width="395.52"><g><svg viewBox="0 0 395.52 88.97142689107977" height="88.97142689107977" width="395.52"><g><svg viewBox="0 0 395.52 88.97142689107977" height="88.97142689107977" width="395.52"><g><svg viewBox="0 0 395.52 50.51725775022143" height="50.51725775022143" width="395.52"><g transform="matrix(1,0,0,1,0,0)"><svg width="395.52" viewBox="0.550000011920929 -35.29999923706055 282.2200012207031 36.04999923706055" height="50.51725775022143" data-palette-color="#233565"><path d="M12.75-35.3Q16.05-35.3 18.53-34.25 21-33.2 23.1-31.05L23.1-31.05 20-27.5Q18.35-28.95 16.7-29.65 15.05-30.35 13.15-30.35L13.15-30.35Q11.05-30.35 9.78-29.25 8.5-28.15 8.5-26.2L8.5-26.2Q8.5-24.9 9.03-24 9.55-23.1 10.9-22.33 12.25-21.55 14.8-20.65L14.8-20.65Q19.45-18.95 21.73-16.6 24-14.25 24-9.85L24-9.85Q24-6.8 22.55-4.4 21.1-2 18.38-0.63 15.65 0.75 12 0.75L12 0.75Q5.15 0.75 0.55-3.95L0.55-3.95 3.85-7.6Q5.75-5.95 7.63-5.1 9.5-4.25 11.75-4.25L11.75-4.25Q14.3-4.25 15.78-5.65 17.25-7.05 17.25-9.5L17.25-9.5Q17.25-11.7 16-12.98 14.75-14.25 11.25-15.45L11.25-15.45Q6.25-17.2 4.05-19.6 1.85-22 1.85-25.75L1.85-25.75Q1.85-28.5 3.25-30.68 4.65-32.85 7.15-34.08 9.65-35.3 12.75-35.3L12.75-35.3ZM28.8-34.55L47.25-34.55 46.55-29.75 35.3-29.75 35.3-19.95 45.15-19.95 45.15-15.2 35.3-15.2 35.3-4.85 47.35-4.85 47.35 0 28.8 0 28.8-34.55ZM69.45 0L62.65-13.9 59.1-13.9 59.1 0 52.6 0 52.6-34.55 61.7-34.55Q74.75-34.55 74.75-24.4L74.75-24.4Q74.75-21.1 73.2-18.73 71.65-16.35 68.55-15.1L68.55-15.1 76.59 0 69.45 0ZM59.1-18.55L62.05-18.55Q65.15-18.55 66.59-19.95 68.05-21.35 68.05-24.4L68.05-24.4Q68.05-27.2 66.52-28.5 65-29.8 61.65-29.8L61.65-29.8 59.1-29.8 59.1-18.55ZM93.34-35.3Q96.44-35.3 98.87-34.27 101.29-33.25 103.44-31.25L103.44-31.25 100.09-27.8Q98.39-29.2 96.92-29.8 95.44-30.4 93.54-30.4L93.54-30.4Q89.94-30.4 87.77-27.33 85.59-24.25 85.59-17.3L85.59-17.3Q85.59-12.4 86.37-9.53 87.14-6.65 88.69-5.43 90.24-4.2 92.64-4.2L92.64-4.2Q95.24-4.2 97.39-5.5L97.39-5.5 97.39-14.7 92.89-14.7 92.24-19.5 103.64-19.5 103.64-2.65Q101.24-1.05 98.44-0.15 95.64 0.75 92.74 0.75L92.74 0.75Q78.84 0.75 78.84-17.3L78.84-17.3Q78.84-23.15 80.77-27.2 82.69-31.25 85.97-33.27 89.24-35.3 93.34-35.3L93.34-35.3ZM109.44-34.55L115.94-34.55 115.94 0 109.44 0 109.44-34.55ZM135.09-35.3Q141.59-35.3 145.24-30.73 148.89-26.15 148.89-17.3L148.89-17.3Q148.89-8.55 145.24-3.9 141.59 0.75 135.09 0.75L135.09 0.75Q128.64 0.75 124.99-3.85 121.34-8.45 121.34-17.25L121.34-17.25Q121.34-25.95 124.99-30.63 128.64-35.3 135.09-35.3L135.09-35.3ZM135.09-30.35Q131.64-30.35 129.89-27.3 128.14-24.25 128.14-17.25L128.14-17.25Q128.14-10.3 129.91-7.25 131.69-4.2 135.09-4.2L135.09-4.2Q138.64-4.2 140.36-7.23 142.09-10.25 142.09-17.3L142.09-17.3Q142.09-24.25 140.36-27.3 138.64-30.35 135.09-30.35L135.09-30.35ZM188.63-34.55L188.63 0 180.33 0 170.23-28.15 170.38-26.8Q171.08-19.8 171.08-14.35L171.08-14.35 171.08 0 165.28 0 165.28-34.55 173.48-34.55 183.68-6.4Q183.38-8.35 183.11-11.63 182.83-14.9 182.83-18.15L182.83-18.15 182.83-34.55 188.63-34.55ZM195.53-34.55L202.03-34.55 202.03 0 195.53 0 195.53-34.55ZM208.93-34.55L227.38-34.55 226.68-29.75 215.43-29.75 215.43-19.95 225.28-19.95 225.28-15.2 215.43-15.2 215.43-4.85 227.48-4.85 227.48 0 208.93 0 208.93-34.55ZM229.73-34.55L253.13-34.55 252.43-29.45 244.48-29.45 244.48 0 238.03 0 238.03-29.45 229.73-29.45 229.73-34.55ZM268.97-35.3Q275.47-35.3 279.12-30.73 282.77-26.15 282.77-17.3L282.77-17.3Q282.77-8.55 279.12-3.9 275.47 0.75 268.97 0.75L268.97 0.75Q262.52 0.75 258.87-3.85 255.22-8.45 255.22-17.25L255.22-17.25Q255.22-25.95 258.87-30.63 262.52-35.3 268.97-35.3L268.97-35.3ZM268.97-30.35Q265.52-30.35 263.77-27.3 262.02-24.25 262.02-17.25L262.02-17.25Q262.02-10.3 263.8-7.25 265.57-4.2 268.97-4.2L268.97-4.2Q272.52-4.2 274.25-7.23 275.97-10.25 275.97-17.3L275.97-17.3Q275.97-24.25 274.25-27.3 272.52-30.35 268.97-30.35L268.97-30.35Z" opacity="1" transform="matrix(1,0,0,1,0,0)" fill="#233565" class="undefined-text-0" data-fill-palette-color="primary" id="text-0"></path></svg></g></svg></g><g transform="matrix(1,0,0,1,75.54431999999998,62.443169890862706)"><svg viewBox="0 0 244.43136 26.52825700021706" height="26.52825700021706" width="244.43136"><g transform="matrix(1,0,0,1,0,0)"><svg width="244.43136" viewBox="2.299999952316284 -37.5 460.6600036621094 50" height="26.52825700021706" data-palette-color="#233565"><path d="M4.95-33.95L2.3-34.25 2.35-35 23.75-35 23.7-34.85 24.35-27.8 23.35-27.4 22.55-34 8.95-34 8.95-17.85 20.9-17.85Q21.15-17.8 21.35-17.98 21.55-18.15 21.55-18.45L21.55-18.45 21.75-21.9 22.55-22 22.55-13.45Q22.5-13.45 21.8-13.4L21.8-13.4 21.6-16.85 8.95-16.85 8.95-0.95 12.4-0.75Q12.4-0.7 12.35 0L12.35 0 2.3 0.05 2.35-0.65 4.95-1Q5.45-1.05 5.55-1.65L5.55-1.65 5.55-33.3Q5.45-33.9 4.95-33.95L4.95-33.95ZM32.15-22.95L32.15-22.95 32.15-18.95Q36.1-24.75 39.9-24.85L39.9-24.85Q40.2-24.85 40.5-24.85L40.5-24.85 43.3-24.5 42-21.5Q41.05-22.45 39.55-22.45L39.55-22.45Q35.9-22.4 32.15-17.6L32.15-17.6 32.15-1 36.4-0.75Q36.4-0.7 36.35 0L36.35 0 25.85 0.05Q25.85-0.4 25.9-0.65L25.9-0.65 28.5-1Q28.9-1.05 28.9-1.7L28.9-1.7 28.9-23.4Q28.8-23.75 28.6-23.75L28.6-23.75 25.6-23.85 25.65-24.55Q28.35-25 29.75-25 31.15-25 31.65-24.35 32.15-23.7 32.15-22.95ZM56.22 0.2Q51 0.2 47.77-2.8 44.55-5.8 44.55-11.98 44.55-18.15 47.97-21.68 51.4-25.2 56.59-25.2 61.8-25.2 65.05-22.2 68.3-19.2 68.3-13.03 68.3-6.85 64.87-3.33 61.45 0.2 56.22 0.2ZM56.55-24.3Q52.8-24.3 50.3-21.05 47.8-17.8 47.8-12.23 47.8-6.65 50.17-3.68 52.55-0.7 56.3-0.7 60.05-0.7 62.55-3.95 65.05-7.2 65.05-12.75 65.05-18.3 62.67-21.3 60.3-24.3 56.55-24.3ZM81.34 0L71.29 0.05 71.34-0.65 73.94-1Q74.39-1.05 74.39-1.7L74.39-1.7 74.39-23.35Q74.29-23.75 74.09-23.75L74.09-23.75 71.04-23.85 71.09-24.55Q74.24-25 75.34-25L75.34-25Q77.34-25 77.59-23.25L77.59-23.25 77.64-23.25 77.64-22.2Q81.74-25 85.49-25.15L85.49-25.15Q89.14-25.15 91.04-23.7L91.04-23.7Q91.89-23.05 92.57-21.68 93.24-20.3 93.24-18.4L93.24-18.4 93.24-1 96.99-0.75Q96.99-0.7 96.94 0L96.94 0 86.94 0.05Q86.94-0.4 86.99-0.65L86.99-0.65 89.59-1Q89.99-1.05 89.99-1.7L89.99-1.7 89.99-17.15Q89.99-19.15 89.47-20.55 88.94-21.95 88.29-22.6 87.64-23.25 86.69-23.6L86.69-23.6Q85.59-24 84.39-24L84.39-24Q81.39-23.95 77.64-21.65L77.64-21.65 77.64-1 81.39-0.75Q81.39-0.7 81.34 0L81.34 0ZM110.44-0.95L110.44-0.95 112.39-1.05 112.54-0.55Q112.49-0.55 111.84-0.4L111.84-0.4Q110.34-0.05 108.49-0.05L108.49-0.05Q106.79-0.15 105.39-0.63 103.99-1.1 102.79-2.63 101.59-4.15 101.59-6.55L101.59-6.55 101.59-24.1 99.04-24.1 99.44-24.5 101.64-24.95 102.04-29.75 104.84-30 104.84-25 110.89-25 110.89-24.1 104.84-24.1 104.84-7.4Q104.84-3.6 106.44-2.27 108.04-0.95 110.44-0.95ZM121.84-13.6L121.84-14.5 136.94-14.5 136.94-13.6 121.84-13.6ZM150.04-11.5L150.04-11.5Q150.04-0.7 158.44-0.7L158.44-0.7Q160.64-0.7 163.14-1.18 165.64-1.65 166.34-2.05L166.34-2.05 166.69-1.55Q165.54-0.8 162.91-0.3 160.29 0.2 158.11 0.2 155.94 0.2 154.21-0.25 152.49-0.7 150.69-1.85 148.89-3 147.84-5.45 146.79-7.9 146.79-11.45L146.79-11.45Q146.79-18.05 150.19-21.55L150.19-21.55Q153.74-25.2 158.44-25.2 163.14-25.2 165.61-22.6 168.09-20 168.09-15.3L168.09-15.3Q168.09-14.3 167.94-13.15L167.94-13.15 150.09-13.15Q150.04-12.6 150.04-11.5ZM165.14-15.65L165.14-15.65Q165.14-19.4 163.49-21.78 161.84-24.15 158.99-24.15L158.99-24.15Q155.29-24.15 152.74-20.9L152.74-20.9Q150.69-18.35 150.19-14.1L150.19-14.1 165.09-14.1Q165.14-14.65 165.14-15.65ZM181.63 0L171.58 0.05 171.63-0.65 174.23-1Q174.68-1.05 174.68-1.7L174.68-1.7 174.68-23.35Q174.58-23.75 174.38-23.75L174.38-23.75 171.33-23.85 171.38-24.55Q174.53-25 175.63-25L175.63-25Q177.63-25 177.88-23.25L177.88-23.25 177.93-23.25 177.93-22.2Q182.03-25 185.78-25.15L185.78-25.15Q189.43-25.15 191.33-23.7L191.33-23.7Q192.18-23.05 192.86-21.68 193.53-20.3 193.53-18.4L193.53-18.4 193.53-1 197.28-0.75Q197.28-0.7 197.23 0L197.23 0 187.23 0.05Q187.23-0.4 187.28-0.65L187.28-0.65 189.88-1Q190.28-1.05 190.28-1.7L190.28-1.7 190.28-17.15Q190.28-19.15 189.76-20.55 189.23-21.95 188.58-22.6 187.93-23.25 186.98-23.6L186.98-23.6Q185.88-24 184.68-24L184.68-24Q181.68-23.95 177.93-21.65L177.93-21.65 177.93-1 181.68-0.75Q181.68-0.7 181.63 0L181.63 0ZM221.48-35.45L221.48-35.45 221.48-2.6Q221.48-1.05 222.28-1.05L222.28-1.05 225.28-0.9 225.23-0.15Q222.83 0.25 220.23 0.25L220.23 0.25Q219.68 0.2 219.06-0.3 218.43-0.8 218.33-1.6L218.33-1.6Q215.48 0.2 211.73 0.2L211.73 0.2Q208.08 0.2 204.98-1.85L204.98-1.85Q203.23-3 202.16-5.48 201.08-7.95 201.08-11.5L201.08-11.5Q201.08-18.05 204.43-21.5L204.43-21.5Q207.98-25.2 212.53-25.2L212.53-25.2Q215.33-25.2 218.23-23.75L218.23-23.75 218.23-35.7Q218.23-36.25 217.93-36.25L217.93-36.25 214.88-36.35 214.93-37.05Q218.08-37.5 219.26-37.5 220.43-37.5 220.96-36.85 221.48-36.2 221.48-35.45ZM212.38-0.7L212.38-0.7Q215.43-0.7 218.23-2.05L218.23-2.05 218.23-22.95Q216.03-24.3 213.88-24.3L213.88-24.3Q209.58-24.3 206.96-21 204.33-17.7 204.33-11.55L204.33-11.55Q204.33-0.7 212.38-0.7ZM247.68-33.95L245.03-34.25 245.08-35 257.28-35Q264.03-35 268.1-31.08 272.18-27.15 272.18-18.3L272.18-18.3Q272.18-9.55 269.33-5.2L269.33-5.2Q266.83-1.4 261.53-0.4L261.53-0.4Q259.18 0 256.03 0L256.03 0 255.08 0 245.03 0.05 245.08-0.65 247.68-1Q248.18-1.05 248.28-1.65L248.28-1.65 248.28-33.25Q248.18-33.9 247.68-33.95L247.68-33.95ZM257.03-34.25L257.03-34.25 251.68-34.25 251.68-0.75 255.78-0.75Q258.18-0.75 259.85-1.03 261.53-1.3 263.35-2.33 265.18-3.35 266.23-5.15L266.23-5.15Q268.78-9.4 268.78-18.05L268.78-18.05Q268.78-27.05 265.23-30.8L265.23-30.8Q261.98-34.25 257.03-34.25ZM279.17-11.5L279.17-11.5Q279.17-0.7 287.57-0.7L287.57-0.7Q289.77-0.7 292.27-1.18 294.77-1.65 295.47-2.05L295.47-2.05 295.82-1.55Q294.67-0.8 292.05-0.3 289.42 0.2 287.25 0.2 285.07 0.2 283.35-0.25 281.62-0.7 279.82-1.85 278.02-3 276.97-5.45 275.92-7.9 275.92-11.45L275.92-11.45Q275.92-18.05 279.32-21.55L279.32-21.55Q282.87-25.2 287.57-25.2 292.27-25.2 294.75-22.6 297.22-20 297.22-15.3L297.22-15.3Q297.22-14.3 297.07-13.15L297.07-13.15 279.22-13.15Q279.17-12.6 279.17-11.5ZM294.27-15.65L294.27-15.65Q294.27-19.4 292.62-21.78 290.97-24.15 288.12-24.15L288.12-24.15Q284.42-24.15 281.87-20.9L281.87-20.9Q279.82-18.35 279.32-14.1L279.32-14.1 294.22-14.1Q294.27-14.65 294.27-15.65ZM318.22-24.95L327.42-25Q327.42-24.95 327.47-24.25L327.47-24.25 323.47-23.8 313.87 0 310.87 0 302.17-23.4Q301.87-23.85 301.42-23.95L301.42-23.95 298.82-24.2 298.77-24.95 309.32-25Q309.32-24.95 309.37-24.25L309.37-24.25 305.67-24 313.52-1.05 321.72-23.2Q321.87-23.45 321.55-23.68 321.22-23.9 320.87-23.95L320.87-23.95 318.27-24.2 318.22-24.95ZM330.07-11.5L330.07-11.5Q330.07-0.7 338.47-0.7L338.47-0.7Q340.67-0.7 343.17-1.18 345.67-1.65 346.37-2.05L346.37-2.05 346.72-1.55Q345.57-0.8 342.94-0.3 340.32 0.2 338.14 0.2 335.97 0.2 334.24-0.25 332.52-0.7 330.72-1.85 328.92-3 327.87-5.45 326.82-7.9 326.82-11.45L326.82-11.45Q326.82-18.05 330.22-21.55L330.22-21.55Q333.77-25.2 338.47-25.2 343.17-25.2 345.64-22.6 348.12-20 348.12-15.3L348.12-15.3Q348.12-14.3 347.97-13.15L347.97-13.15 330.12-13.15Q330.07-12.6 330.07-11.5ZM345.17-15.65L345.17-15.65Q345.17-19.4 343.52-21.78 341.87-24.15 339.02-24.15L339.02-24.15Q335.32-24.15 332.77-20.9L332.77-20.9Q330.72-18.35 330.22-14.1L330.22-14.1 345.12-14.1Q345.17-14.65 345.17-15.65ZM362.17 0L352.12 0.05 352.17-0.65 354.76-1Q355.12-1.05 355.22-1.5L355.22-1.5 355.22-35.7Q355.22-36.25 354.92-36.25L354.92-36.25 351.87-36.35 351.92-37.05Q355.06-37.5 356.24-37.5 357.42-37.5 357.94-36.85 358.47-36.2 358.47-35.45L358.47-35.45 358.47-1 362.22-0.75Q362.22-0.7 362.17 0L362.17 0ZM378.14 0.2Q372.91 0.2 369.69-2.8 366.46-5.8 366.46-11.98 366.46-18.15 369.89-21.68 373.31-25.2 378.51-25.2 383.71-25.2 386.96-22.2 390.21-19.2 390.21-13.03 390.21-6.85 386.79-3.33 383.36 0.2 378.14 0.2ZM378.46-24.3Q374.71-24.3 372.21-21.05 369.71-17.8 369.71-12.23 369.71-6.65 372.09-3.68 374.46-0.7 378.21-0.7 381.96-0.7 384.46-3.95 386.96-7.2 386.96-12.75 386.96-18.3 384.59-21.3 382.21-24.3 378.46-24.3ZM404.26 12.45L393.71 12.5 393.76 11.8 396.36 11.45Q396.81 11.4 396.81 10.75L396.81 10.75 396.81-23.35Q396.71-23.75 396.51-23.75L396.51-23.75 393.46-23.85 393.51-24.55Q396.66-25 397.81-25 398.96-25 399.46-24.43 399.96-23.85 400.06-23.15L400.06-23.15Q403.21-25.45 406.76-25.45L406.76-25.45Q410.16-25.45 413.16-23.35L413.16-23.35Q414.76-22.2 415.74-19.75 416.71-17.3 416.71-13.8L416.71-13.8Q416.71-7.15 413.41-3.8L413.41-3.8Q409.66 0 403.71 0L403.71 0Q401.96 0 400.06-0.25L400.06-0.25 400.06 11.45 404.31 11.7Q404.26 12.4 404.26 12.45L404.26 12.45ZM400.06-22.15L400.06-22.15 400.06-1.3Q401.51-0.95 403.21-0.95L403.21-0.95Q408.11-0.95 410.79-4.28 413.46-7.6 413.46-13.55L413.46-13.55Q413.46-20.35 410.76-22.7L410.76-22.7Q408.66-24.55 406.06-24.55 403.46-24.55 400.06-22.15ZM423.96-11.5L423.96-11.5Q423.96-0.7 432.36-0.7L432.36-0.7Q434.56-0.7 437.06-1.18 439.56-1.65 440.26-2.05L440.26-2.05 440.61-1.55Q439.46-0.8 436.83-0.3 434.21 0.2 432.03 0.2 429.86 0.2 428.13-0.25 426.41-0.7 424.61-1.85 422.81-3 421.76-5.45 420.71-7.9 420.71-11.45L420.71-11.45Q420.71-18.05 424.11-21.55L424.11-21.55Q427.66-25.2 432.36-25.2 437.06-25.2 439.53-22.6 442.01-20 442.01-15.3L442.01-15.3Q442.01-14.3 441.86-13.15L441.86-13.15 424.01-13.15Q423.96-12.6 423.96-11.5ZM439.06-15.65L439.06-15.65Q439.06-19.4 437.41-21.78 435.76-24.15 432.91-24.15L432.91-24.15Q429.21-24.15 426.66-20.9L426.66-20.9Q424.61-18.35 424.11-14.1L424.11-14.1 439.01-14.1Q439.06-14.65 439.06-15.65ZM451.81-22.95L451.81-22.95 451.81-18.95Q455.76-24.75 459.56-24.85L459.56-24.85Q459.86-24.85 460.16-24.85L460.16-24.85 462.96-24.5 461.66-21.5Q460.71-22.45 459.21-22.45L459.21-22.45Q455.56-22.4 451.81-17.6L451.81-17.6 451.81-1 456.06-0.75Q456.06-0.7 456.01 0L456.01 0 445.51 0.05Q445.51-0.4 445.56-0.65L445.56-0.65 448.16-1Q448.56-1.05 448.56-1.7L448.56-1.7 448.56-23.4Q448.46-23.75 448.26-23.75L448.26-23.75 445.26-23.85 445.31-24.55Q448.01-25 449.41-25 450.81-25 451.31-24.35 451.81-23.7 451.81-22.95Z" opacity="1" transform="matrix(1,0,0,1,0,0)" fill="#233565" class="undefined-text-1" data-fill-palette-color="secondary" id="text-1"></path></svg></g></svg></g></svg></g></svg></g><g></g></svg></g><defs></defs></svg><rect width="395.52" height="88.97142689107977" fill="none" stroke="none" visibility="hidden"></rect></g></svg></g></svg>