<?xml version="1.0" encoding="UTF-8"?>
<svg version="1.1" viewBox="0 0 1000 224" xmlns="http://www.w3.org/2000/svg">
<g transform="translate(-.60606 -.035956)">
<svg width="1e3" height="224" data-background-color="#ffffff" viewBox="0 0 396 89" xmlns="http://www.w3.org/2000/svg" xmlns:xlink="http://www.w3.org/1999/xlink">
<g transform="translate(.24 .014287)">
<svg width="395.52" height="88.971" viewBox="0 0 395.52 88.97142689107977">
<svg width="395.52" height="88.971" viewBox="0 0 395.52 88.97142689107977">
<svg width="395.52" height="88.971" viewBox="0 0 395.52 88.97142689107977">
<svg width="395.52" height="88.971" viewBox="0 0 395.52 88.97142689107977">
<svg width="395.52" height="50.517" viewBox="0 0 395.52 50.51725775022143">
<g>
<svg width="395.52" height="50.517" data-palette-color="#233565" viewBox="0.550000011920929 -35.29999923706055 282.2200012207031 36.04999923706055">
<path class="undefined-text-0" d="m12.75-35.3q3.3 0 5.78 1.05 2.47 1.05 4.57 3.2l-3.1 3.55q-1.65-1.45-3.3-2.15t-3.55-0.7q-2.1 0-3.37 1.1-1.28 1.1-1.28 3.05 0 1.3 0.53 2.2 0.52 0.9 1.87 1.67 1.35 0.78 3.9 1.68 4.65 1.7 6.93 4.05 2.27 2.35 2.27 6.75 0 3.05-1.45 5.45t-4.17 3.77q-2.73 1.38-6.38 1.38-6.85 0-11.45-4.7l3.3-3.65q1.9 1.65 3.78 2.5 1.87 0.85 4.12 0.85 2.55 0 4.03-1.4 1.47-1.4 1.47-3.85 0-2.2-1.25-3.48-1.25-1.27-4.75-2.47-5-1.75-7.2-4.15t-2.2-6.15q0-2.75 1.4-4.93 1.4-2.17 3.9-3.4 2.5-1.22 5.6-1.22zm16.05 0.75h18.45l-0.7 4.8h-11.25v9.8h9.85v4.75h-9.85v10.35h12.05v4.85h-18.55v-34.55zm40.65 34.55-6.8-13.9h-3.55v13.9h-6.5v-34.55h9.1q13.05 0 13.05 10.15 0 3.3-1.55 5.67-1.55 2.38-4.65 3.63l8.04 15.1h-7.14zm-10.35-18.55h2.95q3.1 0 4.54-1.4 1.46-1.4 1.46-4.45 0-2.8-1.53-4.1-1.52-1.3-4.87-1.3h-2.55v11.25zm34.24-16.75q3.1 0 5.53 1.03 2.42 1.02 4.57 3.02l-3.35 3.45q-1.7-1.4-3.17-2-1.48-0.6-3.38-0.6-3.6 0-5.77 3.07-2.18 3.08-2.18 10.03 0 4.9 0.78 7.77 0.77 2.88 2.32 4.1 1.55 1.23 3.95 1.23 2.6 0 4.75-1.3v-9.2h-4.5l-0.65-4.8h11.4v16.85q-2.4 1.6-5.2 2.5t-5.7 0.9q-13.9 0-13.9-18.05 0-5.85 1.93-9.9 1.92-4.05 5.2-6.07 3.27-2.03 7.37-2.03zm16.1 0.75h6.5v34.55h-6.5v-34.55zm25.65-0.75q6.5 0 10.15 4.57 3.65 4.58 3.65 13.43 0 8.75-3.65 13.4t-10.15 4.65q-6.45 0-10.1-4.6t-3.65-13.4q0-8.7 3.65-13.38 3.65-4.67 10.1-4.67zm0 4.95q-3.45 0-5.2 3.05t-1.75 10.05q0 6.95 1.77 10 1.78 3.05 5.18 3.05 3.55 0 5.27-3.03 1.73-3.02 1.73-10.07 0-6.95-1.73-10-1.72-3.05-5.27-3.05zm53.54-4.2v34.55h-8.3l-10.1-28.15 0.15 1.35q0.7 7 0.7 12.45v14.35h-5.8v-34.55h8.2l10.2 28.15q-0.3-1.95-0.57-5.23-0.28-3.27-0.28-6.52v-16.4h5.8zm6.9 0h6.5v34.55h-6.5v-34.55zm13.4 0h18.45l-0.7 4.8h-11.25v9.8h9.85v4.75h-9.85v10.35h12.05v4.85h-18.55v-34.55zm20.8 0h23.4l-0.7 5.1h-7.95v29.45h-6.45v-29.45h-8.3v-5.1zm39.24-0.75q6.5 0 10.15 4.57 3.65 4.58 3.65 13.43 0 8.75-3.65 13.4t-10.15 4.65q-6.45 0-10.1-4.6t-3.65-13.4q0-8.7 3.65-13.38 3.65-4.67 10.1-4.67zm0 4.95q-3.45 0-5.2 3.05t-1.75 10.05q0 6.95 1.78 10 1.77 3.05 5.17 3.05 3.55 0 5.28-3.03 1.72-3.02 1.72-10.07 0-6.95-1.72-10-1.73-3.05-5.28-3.05z" fill="#233565" data-fill-palette-color="primary"/>
</svg>
</g>
</svg>
<g transform="translate(75.544 62.443)">
<svg width="244.43" height="26.528" viewBox="0 0 244.43136 26.52825700021706">
<g>
<svg width="244.43" height="26.528" data-palette-color="#233565" viewBox="2.299999952316284 -37.5 460.6600036621094 50">
<path class="undefined-text-1" d="m4.95-33.95-2.65-0.3 0.05-0.75h21.4l-0.05 0.15 0.65 7.05-1 0.4-0.8-6.6h-13.6v16.15h11.95q0.25 0.05 0.45-0.13 0.2-0.17 0.2-0.47l0.2-3.45 0.8-0.1v8.55q-0.05 0-0.75 0.05l-0.2-3.45h-12.65v15.9l3.45 0.2q0 0.05-0.05 0.75l-10.05 0.05 0.05-0.7 2.6-0.35q0.5-0.05 0.6-0.65v-31.65q-0.1-0.6-0.6-0.65zm27.2 11v4q3.95-5.8 7.75-5.9 0.3 0 0.6 0l2.8 0.35-1.3 3q-0.95-0.95-2.45-0.95-3.65 0.05-7.4 4.85v16.6l4.25 0.25q0 0.05-0.05 0.75l-10.5 0.05q0-0.45 0.05-0.7l2.6-0.35q0.4-0.05 0.4-0.7v-21.7q-0.1-0.35-0.3-0.35l-3-0.1 0.05-0.7q2.7-0.45 4.1-0.45t1.9 0.65 0.5 1.4zm24.07 23.15q-5.22 0-8.45-3-3.22-3-3.22-9.18 0-6.17 3.42-9.7 3.43-3.52 8.62-3.52 5.21 0 8.46 3t3.25 9.17q0 6.18-3.43 9.7-3.42 3.53-8.65 3.53zm0.33-24.5q-3.75 0-6.25 3.25t-2.5 8.82q0 5.58 2.37 8.55 2.38 2.98 6.13 2.98t6.25-3.25 2.5-8.8-2.38-8.55q-2.37-3-6.12-3zm24.79 24.3-10.05 0.05 0.05-0.7 2.6-0.35q0.45-0.05 0.45-0.7v-21.65q-0.1-0.4-0.3-0.4l-3.05-0.1 0.05-0.7q3.15-0.45 4.25-0.45 2 0 2.25 1.75h0.05v1.05q4.1-2.8 7.85-2.95 3.65 0 5.55 1.45 0.85 0.65 1.53 2.02 0.67 1.38 0.67 3.28v17.4l3.75 0.25q0 0.05-0.05 0.75l-10 0.05q0-0.45 0.05-0.7l2.6-0.35q0.4-0.05 0.4-0.7v-15.45q0-2-0.52-3.4-0.53-1.4-1.18-2.05t-1.6-1q-1.1-0.4-2.3-0.4-3 0.05-6.75 2.35v20.65l3.75 0.25q0 0.05-0.05 0.75zm29.1-0.95 1.95-0.1 0.15 0.5q-0.05 0-0.7 0.15-1.5 0.35-3.35 0.35-1.7-0.1-3.1-0.58-1.4-0.47-2.6-2-1.2-1.52-1.2-3.92v-17.55h-2.55l0.4-0.4 2.2-0.45 0.4-4.8 2.8-0.25v5h6.05v0.9h-6.05v16.7q0 3.8 1.6 5.13 1.6 1.32 4 1.32zm11.4-12.65v-0.9h15.1v0.9h-15.1zm28.2 2.1q0 10.8 8.4 10.8 2.2 0 4.7-0.48 2.5-0.47 3.2-0.87l0.35 0.5q-1.15 0.75-3.78 1.25-2.62 0.5-4.8 0.5-2.17 0-3.9-0.45-1.72-0.45-3.52-1.6t-2.85-3.6-1.05-6q0-6.6 3.4-10.1 3.55-3.65 8.25-3.65t7.17 2.6q2.48 2.6 2.48 7.3 0 1-0.15 2.15h-17.85q-0.05 0.55-0.05 1.65zm15.1-4.15q0-3.75-1.65-6.13-1.65-2.37-4.5-2.37-3.7 0-6.25 3.25-2.05 2.55-2.55 6.8h14.9q0.05-0.55 0.05-1.55zm16.49 15.65-10.05 0.05 0.05-0.7 2.6-0.35q0.45-0.05 0.45-0.7v-21.65q-0.1-0.4-0.3-0.4l-3.05-0.1 0.05-0.7q3.15-0.45 4.25-0.45 2 0 2.25 1.75h0.05v1.05q4.1-2.8 7.85-2.95 3.65 0 5.55 1.45 0.85 0.65 1.53 2.02 0.67 1.38 0.67 3.28v17.4l3.75 0.25q0 0.05-0.05 0.75l-10 0.05q0-0.45 0.05-0.7l2.6-0.35q0.4-0.05 0.4-0.7v-15.45q0-2-0.52-3.4-0.53-1.4-1.18-2.05t-1.6-1q-1.1-0.4-2.3-0.4-3 0.05-6.75 2.35v20.65l3.75 0.25q0 0.05-0.05 0.75zm39.85-35.45v32.85q0 1.55 0.8 1.55l3 0.15-0.05 0.75q-2.4 0.4-5 0.4-0.55-0.05-1.17-0.55-0.63-0.5-0.73-1.3-2.85 1.8-6.6 1.8-3.65 0-6.75-2.05-1.75-1.15-2.82-3.63-1.08-2.47-1.08-6.02 0-6.55 3.35-10 3.55-3.7 8.1-3.7 2.8 0 5.7 1.45v-11.95q0-0.55-0.3-0.55l-3.05-0.1 0.05-0.7q3.15-0.45 4.33-0.45 1.17 0 1.7 0.65 0.52 0.65 0.52 1.4zm-9.1 34.75q3.05 0 5.85-1.35v-20.9q-2.2-1.35-4.35-1.35-4.3 0-6.92 3.3-2.63 3.3-2.63 9.45 0 10.85 8.05 10.85zm35.3-33.25-2.65-0.3 0.05-0.75h12.2q6.75 0 10.82 3.92 4.08 3.93 4.08 12.78 0 8.75-2.85 13.1-2.5 3.8-7.8 4.8-2.35 0.4-5.5 0.4h-0.95l-10.05 0.05 0.05-0.7 2.6-0.35q0.5-0.05 0.6-0.65v-31.6q-0.1-0.65-0.6-0.7zm9.35-0.3h-5.35v33.5h4.1q2.4 0 4.07-0.28 1.68-0.27 3.5-1.3 1.83-1.02 2.88-2.82 2.55-4.25 2.55-12.9 0-9-3.55-12.75-3.25-3.45-8.2-3.45zm22.14 22.75q0 10.8 8.4 10.8 2.2 0 4.7-0.48 2.5-0.47 3.2-0.87l0.35 0.5q-1.15 0.75-3.77 1.25-2.63 0.5-4.8 0.5-2.18 0-3.9-0.45-1.73-0.45-3.53-1.6t-2.85-3.6-1.05-6q0-6.6 3.4-10.1 3.55-3.65 8.25-3.65t7.18 2.6q2.47 2.6 2.47 7.3 0 1-0.15 2.15h-17.85q-0.05 0.55-0.05 1.65zm15.1-4.15q0-3.75-1.65-6.13-1.65-2.37-4.5-2.37-3.7 0-6.25 3.25-2.05 2.55-2.55 6.8h14.9q0.05-0.55 0.05-1.55zm23.95-9.3 9.2-0.05q0 0.05 0.05 0.75l-4 0.45-9.6 23.8h-3l-8.7-23.4q-0.3-0.45-0.75-0.55l-2.6-0.25-0.05-0.75 10.55-0.05q0 0.05 0.05 0.75l-3.7 0.25 7.85 22.95 8.2-22.15q0.15-0.25-0.17-0.48-0.33-0.22-0.68-0.27l-2.6-0.25-0.05-0.75zm11.85 13.45q0 10.8 8.4 10.8 2.2 0 4.7-0.48 2.5-0.47 3.2-0.87l0.35 0.5q-1.15 0.75-3.78 1.25-2.62 0.5-4.8 0.5-2.17 0-3.9-0.45-1.72-0.45-3.52-1.6t-2.85-3.6-1.05-6q0-6.6 3.4-10.1 3.55-3.65 8.25-3.65t7.17 2.6q2.48 2.6 2.48 7.3 0 1-0.15 2.15h-17.85q-0.05 0.55-0.05 1.65zm15.1-4.15q0-3.75-1.65-6.13-1.65-2.37-4.5-2.37-3.7 0-6.25 3.25-2.05 2.55-2.55 6.8h14.9q0.05-0.55 0.05-1.55zm17 15.65-10.05 0.05 0.05-0.7 2.59-0.35q0.36-0.05 0.46-0.5v-34.2q0-0.55-0.3-0.55l-3.05-0.1 0.05-0.7q3.14-0.45 4.32-0.45t1.7 0.65q0.53 0.65 0.53 1.4v34.45l3.75 0.25q0 0.05-0.05 0.75zm15.97 0.2q-5.23 0-8.45-3-3.23-3-3.23-9.18 0-6.17 3.43-9.7 3.42-3.52 8.62-3.52t8.45 3 3.25 9.17q0 6.18-3.42 9.7-3.43 3.53-8.65 3.53zm0.32-24.5q-3.75 0-6.25 3.25t-2.5 8.82q0 5.58 2.38 8.55 2.37 2.98 6.12 2.98t6.25-3.25 2.5-8.8-2.37-8.55q-2.38-3-6.13-3zm25.8 36.75-10.55 0.05 0.05-0.7 2.6-0.35q0.45-0.05 0.45-0.7v-34.1q-0.1-0.4-0.3-0.4l-3.05-0.1 0.05-0.7q3.15-0.45 4.3-0.45t1.65 0.57q0.5 0.58 0.6 1.28 3.15-2.3 6.7-2.3 3.4 0 6.4 2.1 1.6 1.15 2.58 3.6 0.97 2.45 0.97 5.95 0 6.65-3.3 10-3.75 3.8-9.7 3.8-1.75 0-3.65-0.25v11.7l4.25 0.25q-0.05 0.7-0.05 0.75zm-4.2-34.6v20.85q1.45 0.35 3.15 0.35 4.9 0 7.58-3.33 2.67-3.32 2.67-9.27 0-6.8-2.7-9.15-2.1-1.85-4.7-1.85t-6 2.4zm23.9 10.65q0 10.8 8.4 10.8 2.2 0 4.7-0.48 2.5-0.47 3.2-0.87l0.35 0.5q-1.15 0.75-3.78 1.25-2.62 0.5-4.8 0.5-2.17 0-3.9-0.45-1.72-0.45-3.52-1.6t-2.85-3.6-1.05-6q0-6.6 3.4-10.1 3.55-3.65 8.25-3.65t7.17 2.6q2.48 2.6 2.48 7.3 0 1-0.15 2.15h-17.85q-0.05 0.55-0.05 1.65zm15.1-4.15q0-3.75-1.65-6.13-1.65-2.37-4.5-2.37-3.7 0-6.25 3.25-2.05 2.55-2.55 6.8h14.9q0.05-0.55 0.05-1.55zm12.75-7.3v4q3.95-5.8 7.75-5.9 0.3 0 0.6 0l2.8 0.35-1.3 3q-0.95-0.95-2.45-0.95-3.65 0.05-7.4 4.85v16.6l4.25 0.25q0 0.05-0.05 0.75l-10.5 0.05q0-0.45 0.05-0.7l2.6-0.35q0.4-0.05 0.4-0.7v-21.7q-0.1-0.35-0.3-0.35l-3-0.1 0.05-0.7q2.7-0.45 4.1-0.45t1.9 0.65 0.5 1.4z" fill="#233565" data-fill-palette-color="secondary"/>
</svg>
</g>
</svg>
</g>
</svg>
</svg>
</svg>
</svg>
<rect width="395.52" height="88.971" fill="none" visibility="hidden"/>
</g>
</svg>
</g>
</svg>